<svg width="40" height="40" viewBox="0 0 40 40" fill="none" xmlns="http://www.w3.org/2000/svg">
<path d="M19.4323 6.03069C19.4326 6.03013 19.4327 6.03027 19.4325 6.0311C19.4139 6.10841 17.1061 12.1841 11.0563 15.8306C4.94183 19.516 9.79991 30.9911 18.0084 25.798C18.1642 27.6181 15.4118 30.9074 14.658 31.9125V32.9176H24.2066V31.9125C23.5365 31.0749 21.1352 28.5568 20.7725 25.798C29.0647 30.5723 33.4202 19.516 27.8083 15.8306C22.2134 12.1563 21.4418 10.4568 19.4505 6.07069C19.4445 6.05752 19.4385 6.04432 19.4325 6.0311L19.4323 6.03069Z" fill="#00D1FF"/>
<path d="M39.0321 19.516C39.0321 30.2945 30.2945 39.0321 19.516 39.0321C8.73763 39.0321 0 30.2945 0 19.516C0 8.73763 8.73763 0 19.516 0C30.2945 0 39.0321 8.73763 39.0321 19.516ZM2.97449 19.516C2.97449 28.6517 10.3804 36.0576 19.516 36.0576C28.6517 36.0576 36.0576 28.6517 36.0576 19.516C36.0576 10.3804 28.6517 2.97449 19.516 2.97449C10.3804 2.97449 2.97449 10.3804 2.97449 19.516Z" fill="#00D1FF"/>
</svg>
